<svg xmlns="http://www.w3.org/2000/svg" viewBox="0 0 1200 800" preserveAspectRatio="xMidYMid slice">
  <defs>
    <radialGradient id="bg2" cx="30%" cy="20%" r="80%">
      <stop offset="0%" stop-color="#0b1220" />
      <stop offset="50%" stop-color="#1f2937" />
      <stop offset="100%" stop-color="#111827" />
    </radialGradient>
    <radialGradient id="core" cx="50%" cy="45%" r="30%">
      <stop offset="0%" stop-color="#f8fafc" />
      <stop offset="30%" stop-color="#c7d2fe" />
      <stop offset="60%" stop-color="#6366f1" />
      <stop offset="100%" stop-color="#0b1220" />
    </radialGradient>
  </defs>
  <rect width="1200" height="800" fill="url(#bg2)" />
  <g fill="#f8fafc" opacity="0.9">
    <circle cx="160" cy="110" r="3" />
    <circle cx="320" cy="80" r="2.5" />
    <circle cx="580" cy="160" r="3.5" />
    <circle cx="880" cy="100" r="2" />
    <circle cx="1040" cy="220" r="4" />
  </g>
  <circle cx="600" cy="380" r="220" fill="url(#core)" opacity="0.9" />
  <path d="M430 300 C540 210 540 460 660 330 C760 220 840 360 930 300" fill="none" stroke="#e0e7ff" stroke-width="18" opacity="0.2" />
  <path d="M460 420 C530 360 570 520 650 420 C710 340 780 520 860 430" fill="none" stroke="#c7d2fe" stroke-width="12" opacity="0.25" />
  <g fill="#e2e8f0" opacity="0.75">
    <circle cx="780" cy="260" r="5" />
    <circle cx="520" cy="460" r="4" />
    <circle cx="620" cy="120" r="3" />
  </g>
  <text x="50%" y="90%" fill="#cbd5e1" font-family="Arial, sans-serif" font-size="48" text-anchor="middle">Nébuleuse d'Orion</text>
</svg>
